{
	"asset":{
		"generator":"Khronos glTF Blender I/O v5.0.21",
		"version":"2.0"
	},
	"extensionsUsed":[
		"KHR_lights_punctual"
	],
	"extensionsRequired":[
		"KHR_lights_punctual"
	],
	"extensions":{
		"KHR_lights_punctual":{
			"lights":[
				{
					"color":[
						1,
						1,
						1
					],
					"intensity":1,
					"type":"directional",
					"name":"Sun"
				}
			]
		}
	},
	"scene":0,
	"scenes":[
		{
			"name":"Scene",
			"nodes":[
				0,
				1,
				2,
				3,
				5
			]
		}
	],
	"nodes":[
		{
			"extensions":{
				"KHR_lights_punctual":{
					"light":0
				}
			},
			"extras":{
				"ant_landscape":{}
			},
			"name":"Sun",
			"rotation":[
				-0.8085771799087524,
				0.13945671916007996,
				-0.21249224245548248,
				0.5306617617607117
			],
			"translation":[
				4.35711669921875,
				91.53843688964844,
				54.83384704589844
			]
		},
		{
			"extras":{
				"ant_landscape":{}
			},
			"mesh":0,
			"name":"Rocks-col",
			"translation":[
				0,
				-32.62053298950195,
				0
			]
		},
		{
			"extras":{
				"ant_landscape":{}
			},
			"mesh":1,
			"name":"Rocks2-col",
			"translation":[
				0,
				-32.62053298950195,
				0
			]
		},
		{
			"extras":{
				"ant_landscape":{
					"ant_terrain_name":"Landscape",
					"at_cursor":1,
					"smooth_mesh":1,
					"tri_face":0,
					"sphere_mesh":0,
					"land_material":"",
					"water_material":"",
					"texture_block":"",
					"subdivision_x":128,
					"subdivision_y":128,
					"mesh_size_x":2.0,
					"mesh_size_y":2.0,
					"mesh_size":2.0,
					"random_seed":123,
					"noise_offset_x":0.0,
					"noise_offset_y":0.0,
					"noise_offset_z":0.0,
					"noise_size_x":1.0,
					"noise_size_y":1.0,
					"noise_size_z":1.0,
					"noise_size":1.0,
					"noise_type":7,
					"basis_type":0,
					"vl_basis_type":0,
					"distortion":1.0,
					"hard_noise":0,
					"noise_depth":8,
					"amplitude":0.5,
					"frequency":2.0,
					"dimension":1.0,
					"lacunarity":2.0,
					"offset":1.0,
					"gain":1.0,
					"marble_bias":2,
					"marble_sharp":0,
					"marble_shape":7,
					"height":0.20000000298023224,
					"height_invert":0,
					"height_offset":0.0,
					"maximum":0.5,
					"minimum":0.0,
					"edge_falloff":0,
					"edge_level":0.0,
					"falloff_x":40.0,
					"falloff_y":40.0,
					"strata_type":1,
					"strata":1.25,
					"water_plane":1,
					"water_level":0.03999999910593033,
					"vert_group":"",
					"remove_double":0,
					"fx_mixfactor":0.0,
					"fx_mix_mode":0,
					"fx_type":0,
					"fx_bias":0,
					"fx_turb":0.0,
					"fx_depth":0,
					"fx_frequency":1.5,
					"fx_amplitude":0.5,
					"fx_size":1.0,
					"fx_loc_x":0.0,
					"fx_loc_y":0.0,
					"fx_height":0.5,
					"fx_offset":0.0,
					"fx_invert":0
				}
			},
			"mesh":2,
			"name":"Floor-col",
			"rotation":[
				0,
				0.2270209789276123,
				0,
				0.9738898873329163
			],
			"translation":[
				-8.671212196350098,
				-60.38539505004883,
				225.05592346191406
			]
		},
		{
			"extras":{
				"ant_landscape":{}
			},
			"mesh":3,
			"name":"Plane.018",
			"scale":[
				6.526004314422607,
				6.526004314422607,
				6.526004314422607
			],
			"translation":[
				-0.0677490234375,
				-8.098258972167969,
				-63.51734924316406
			]
		},
		{
			"children":[
				4
			],
			"extras":{
				"ant_landscape":{}
			},
			"mesh":4,
			"name":"Tunnel-col",
			"translation":[
				0,
				12.100021362304688,
				-115.05264282226562
			]
		}
	],
	"materials":[
		{
			"name":"cliffs",
			"pbrMetallicRoughness":{
				"baseColorTexture":{
					"index":0
				},
				"metallicFactor":0,
				"roughnessFactor":0.699999988079071
			}
		},
		{
			"name":"nagonford",
			"pbrMetallicRoughness":{
				"baseColorTexture":{
					"index":1
				},
				"metallicFactor":0,
				"roughnessFactor":0.5
			}
		}
	],
	"meshes":[
		{
			"name":"Circle.067",
			"primitives":[
				{
					"attributes":{
						"POSITION":0,
						"NORMAL":1,
						"TEXCOORD_0":2
					},
					"indices":3,
					"material":0
				}
			]
		},
		{
			"name":"Circle.001",
			"primitives":[
				{
					"attributes":{
						"POSITION":4,
						"NORMAL":5,
						"TEXCOORD_0":6
					},
					"indices":7,
					"material":0
				}
			]
		},
		{
			"name":"Landscape.003",
			"primitives":[
				{
					"attributes":{
						"POSITION":8,
						"NORMAL":9,
						"TEXCOORD_0":10,
						"TANGENT":11
					},
					"indices":12,
					"material":1
				}
			]
		},
		{
			"name":"Plane.021",
			"primitives":[
				{
					"attributes":{
						"POSITION":13,
						"NORMAL":14,
						"TEXCOORD_0":15
					},
					"indices":16,
					"material":1
				}
			]
		},
		{
			"name":"Cube.596",
			"primitives":[
				{
					"attributes":{
						"POSITION":17,
						"NORMAL":18,
						"TEXCOORD_0":19,
						"TANGENT":20
					},
					"indices":21,
					"material":0
				}
			]
		}
	],
	"textures":[
		{
			"sampler":0,
			"source":0
		},
		{
			"sampler":0,
			"source":1
		}
	],
	"images":[
		{
			"mimeType":"image/png",
			"name":"nagon_texture.png.007",
			"uri":"../../graphics/environment/textures/nagon_texture.png"
		},
		{
			"mimeType":"image/png",
			"name":"nagon_texture.png",
			"uri":"../../graphics/environment/textures/nagon_texture.png"
		}
	],
	"accessors":[
		{
			"bufferView":0,
			"componentType":5126,
			"count":17544,
			"max":[
				335.2205810546875,
				129.6583251953125,
				520.7101440429688
			],
			"min":[
				-383.148193359375,
				-112.03772735595703,
				-172.79293823242188
			],
			"type":"VEC3"
		},
		{
			"bufferView":1,
			"componentType":5126,
			"count":17544,
			"type":"VEC3"
		},
		{
			"bufferView":2,
			"componentType":5126,
			"count":17544,
			"type":"VEC2"
		},
		{
			"bufferView":3,
			"componentType":5123,
			"count":62760,
			"type":"SCALAR"
		},
		{
			"bufferView":4,
			"componentType":5126,
			"count":1306,
			"max":[
				85.90760803222656,
				102.68785858154297,
				-81.65756225585938
			],
			"min":[
				-48.669639587402344,
				26.008197784423828,
				-182.2036895751953
			],
			"type":"VEC3"
		},
		{
			"bufferView":5,
			"componentType":5126,
			"count":1306,
			"type":"VEC3"
		},
		{
			"bufferView":6,
			"componentType":5126,
			"count":1306,
			"type":"VEC2"
		},
		{
			"bufferView":7,
			"componentType":5123,
			"count":4347,
			"type":"SCALAR"
		},
		{
			"bufferView":8,
			"componentType":5126,
			"count":16189,
			"max":[
				296.0339660644531,
				77.64228057861328,
				235.87094116210938
			],
			"min":[
				-302.2108154296875,
				0.023151397705078125,
				-355.4232482910156
			],
			"type":"VEC3"
		},
		{
			"bufferView":9,
			"componentType":5126,
			"count":16189,
			"type":"VEC3"
		},
		{
			"bufferView":10,
			"componentType":5126,
			"count":16189,
			"type":"VEC2"
		},
		{
			"bufferView":11,
			"componentType":5126,
			"count":16189,
			"type":"VEC4"
		},
		{
			"bufferView":12,
			"componentType":5123,
			"count":61410,
			"type":"SCALAR"
		},
		{
			"bufferView":13,
			"componentType":5126,
			"count":742,
			"max":[
				0.4533557593822479,
				0.4712315797805786,
				0.16889402270317078
			],
			"min":[
				-0.45330291986465454,
				-0.38807880878448486,
				0
			],
			"type":"VEC3"
		},
		{
			"bufferView":14,
			"componentType":5126,
			"count":742,
			"type":"VEC3"
		},
		{
			"bufferView":15,
			"componentType":5126,
			"count":742,
			"type":"VEC2"
		},
		{
			"bufferView":16,
			"componentType":5123,
			"count":1296,
			"type":"SCALAR"
		},
		{
			"bufferView":17,
			"componentType":5126,
			"count":1206,
			"max":[
				19.64682960510254,
				21.89776611328125,
				22.34065818786621
			],
			"min":[
				-19.871843338012695,
				-13.636350631713867,
				-64.24691772460938
			],
			"type":"VEC3"
		},
		{
			"bufferView":18,
			"componentType":5126,
			"count":1206,
			"type":"VEC3"
		},
		{
			"bufferView":19,
			"componentType":5126,
			"count":1206,
			"type":"VEC2"
		},
		{
			"bufferView":20,
			"componentType":5126,
			"count":1206,
			"type":"VEC4"
		},
		{
			"bufferView":21,
			"componentType":5123,
			"count":3510,
			"type":"SCALAR"
		}
	],
	"bufferViews":[
		{
			"buffer":0,
			"byteLength":210528,
			"byteOffset":0,
			"target":34962
		},
		{
			"buffer":0,
			"byteLength":210528,
			"byteOffset":210528,
			"target":34962
		},
		{
			"buffer":0,
			"byteLength":140352,
			"byteOffset":421056,
			"target":34962
		},
		{
			"buffer":0,
			"byteLength":125520,
			"byteOffset":561408,
			"target":34963
		},
		{
			"buffer":0,
			"byteLength":15672,
			"byteOffset":686928,
			"target":34962
		},
		{
			"buffer":0,
			"byteLength":15672,
			"byteOffset":702600,
			"target":34962
		},
		{
			"buffer":0,
			"byteLength":10448,
			"byteOffset":718272,
			"target":34962
		},
		{
			"buffer":0,
			"byteLength":8694,
			"byteOffset":728720,
			"target":34963
		},
		{
			"buffer":0,
			"byteLength":194268,
			"byteOffset":737416,
			"target":34962
		},
		{
			"buffer":0,
			"byteLength":194268,
			"byteOffset":931684,
			"target":34962
		},
		{
			"buffer":0,
			"byteLength":129512,
			"byteOffset":1125952,
			"target":34962
		},
		{
			"buffer":0,
			"byteLength":259024,
			"byteOffset":1255464,
			"target":34962
		},
		{
			"buffer":0,
			"byteLength":122820,
			"byteOffset":1514488,
			"target":34963
		},
		{
			"buffer":0,
			"byteLength":8904,
			"byteOffset":1637308,
			"target":34962
		},
		{
			"buffer":0,
			"byteLength":8904,
			"byteOffset":1646212,
			"target":34962
		},
		{
			"buffer":0,
			"byteLength":5936,
			"byteOffset":1655116,
			"target":34962
		},
		{
			"buffer":0,
			"byteLength":2592,
			"byteOffset":1661052,
			"target":34963
		},
		{
			"buffer":0,
			"byteLength":14472,
			"byteOffset":1663644,
			"target":34962
		},
		{
			"buffer":0,
			"byteLength":14472,
			"byteOffset":1678116,
			"target":34962
		},
		{
			"buffer":0,
			"byteLength":9648,
			"byteOffset":1692588,
			"target":34962
		},
		{
			"buffer":0,
			"byteLength":19296,
			"byteOffset":1702236,
			"target":34962
		},
		{
			"buffer":0,
			"byteLength":7020,
			"byteOffset":1721532,
			"target":34963
		}
	],
	"samplers":[
		{
			"magFilter":9729,
			"minFilter":9987
		}
	],
	"buffers":[
		{
			"byteLength":1728552,
			"uri":"overworld_environment-06206223de6b0f41b0f47bd4d7f13859.bin"
		}
	]
}
